<svg width="50" height="50" viewBox="0 0 46 46" fill="none" xmlns="http://www.w3.org/2000/svg">
  <svg width="46" height="46" viewBox="0 0 46 46" fill="none" xmlns="http://www.w3.org/2000/svg">
    <path fill-rule="evenodd" clip-rule="evenodd" d="M21.1224 3.28906C23.8822 3.45713 26.5942 3.92652 29.2585 4.69723C26.7163 5.62292 24.1085 6.14444 21.4353 6.26185C19.6216 5.86575 17.8484 5.34423 16.1156 4.69723C17.8675 4.39178 19.5364 3.92239 21.1224 3.28906Z" fill="#7734E7"/>
    <path fill-rule="evenodd" clip-rule="evenodd" d="M19.2449 6.41406C20.4045 6.66118 21.5519 6.9741 22.6871 7.35284C23.912 6.90933 25.1637 6.5964 26.4422 6.41406C26.543 7.10951 26.3344 7.68319 25.8164 8.13515C23.7302 9.17822 21.644 9.17822 19.5578 8.13515C19.2743 7.60333 19.17 7.02965 19.2449 6.41406Z" fill="#AC73FF"/>
    <path fill-rule="evenodd" clip-rule="evenodd" d="M24.5646 9.54688C25.174 10.8345 25.9042 12.0862 26.7551 13.302C25.1605 14.4282 23.9609 15.8885 23.1564 17.6829C22.9478 16.2226 22.9478 14.7623 23.1564 13.302C23.8081 12.6201 23.6516 12.2028 22.687 12.0503C22.3923 12.0841 22.1315 12.1884 21.9047 12.3632C22.3788 14.1629 22.4831 16.0404 22.2177 17.9959C21.547 16.0219 20.3474 14.4572 18.619 13.302C19.4428 12.3213 20.0686 11.2261 20.4966 10.0163C21.9108 9.96141 23.2668 9.80494 24.5646 9.54688Z" fill="#565659"/>
    <path fill-rule="evenodd" clip-rule="evenodd" d="M20.4966 17.9899C18.2773 16.6237 15.8782 15.6849 13.2993 15.1736C12.4648 15.0693 11.6304 14.9649 10.7959 14.8607C10.7959 14.5477 10.7959 14.2348 10.7959 13.9219C14.4968 14.249 17.7304 15.605 20.4966 17.9899Z" fill="#7734E7"/>
    <path fill-rule="evenodd" clip-rule="evenodd" d="M33.9524 14.8607C30.7002 15.2839 27.6753 16.327 24.8776 17.9899C27.6479 15.6039 30.8815 14.2479 34.5782 13.9219C34.6455 14.4472 34.4368 14.7601 33.9524 14.8607Z" fill="#7734E7"/>
    <path fill-rule="evenodd" clip-rule="evenodd" d="M10.6394 15.3359C11.2653 15.3359 11.4217 15.3592 12.0476 15.4924C14.779 16.0738 17.3867 17.0647 19.8707 18.4652C17.0207 17.5967 14.1001 16.9186 11.1088 16.4312C10.0136 16.2747 9.07479 16.2747 8.29248 16.1182C8.73618 15.5525 9.85711 15.3359 10.6394 15.3359Z" fill="#7734E7"/>
    <path fill-rule="evenodd" clip-rule="evenodd" d="M33.9524 15.0234C35.0358 15.3306 36.1833 15.4349 37.3946 15.3364C37.4688 15.7403 37.3646 16.0533 37.0817 16.2751C33.2386 15.3304 29.5878 16.0084 26.1293 18.3092C28.8879 17.5947 31.704 17.021 34.5783 16.5881C34.6853 16.8504 34.8937 16.9547 35.2041 16.901C32.0048 17.3363 28.8755 18.1707 25.8164 19.4044C25.038 19.5564 24.36 19.5564 23.7823 19.4044C23.8845 18.8354 24.2496 18.4182 24.8776 18.1527C27.6753 16.4898 30.7002 15.4467 33.9524 15.0234Z" fill="#E6F1F7"/>
    <path fill-rule="evenodd" clip-rule="evenodd" d="M37.0817 16.113C36.3156 16.4175 35.517 16.2845 34.5783 16.4259C31.704 16.8589 28.8879 17.4326 26.1293 18.147C29.5878 15.8463 36.9252 15.1742 37.0817 16.113Z" fill="#7734E7"/>
    <path fill-rule="evenodd" clip-rule="evenodd" d="M9.23124 16.7422C13.2271 17.1473 17.0865 18.1904 20.8095 19.8714C20.8095 20.0801 20.9138 20.1844 21.1224 20.1844C21.2005 20.6294 21.4613 20.9423 21.9047 21.1231C22.0611 26.7548 22.1133 32.3875 22.0612 38.0211C21.7482 38.0211 21.4353 38.0211 21.1224 38.0211C18.5093 37.5401 15.9016 37.0188 13.2993 36.4565C15.1218 34.6866 16.9993 32.9655 18.9319 31.2932C19.2448 30.5109 17.8367 30.8238 16.7414 31.9191C16.1156 32.3884 16.2721 32.232 15.8027 31.9191C16.9275 30.9647 18.0227 29.9738 19.0884 28.9463C19.5578 28.4937 20.0272 27.3816 18.619 28.0075C17.3331 28.8229 16.1857 29.8139 15.1768 30.9803C14.9166 31.1955 14.7079 31.1433 14.551 30.8238C15.9676 29.5391 17.3236 28.1831 18.619 26.7558C18.7755 26.2864 18.7755 25.817 17.3673 26.5993C16.065 27.6928 14.7611 28.788 13.4557 29.885C13.0622 29.7756 12.9579 29.567 13.1428 29.2592C13.9187 28.4553 14.7531 27.7251 15.6462 27.0687C15.8027 26.4429 15.8027 26.2864 15.1768 26.4429C14.551 26.5993 14.3096 26.6678 13.9251 26.9123C12.5461 28.1489 11.1379 29.3484 9.70062 30.5109C9.492 30.3023 9.492 30.0937 9.70062 29.885C11.1952 28.4603 10.4829 27.5381 8.91831 28.7898C8.50109 29.207 8.08383 29.6243 7.66661 30.0415C7.40635 30.2567 7.19772 30.2045 7.04076 29.885C6.32776 25.5198 5.70191 21.1388 5.16321 16.7422C6.51921 16.7422 7.87524 16.7422 9.23124 16.7422Z" fill="#7734E7"/>
    <path fill-rule="evenodd" clip-rule="evenodd" d="M35.204 16.7422C36.8729 16.7422 38.542 16.7422 40.2108 16.7422C39.7843 21.2827 39.0543 25.768 38.0203 30.198C37.2512 29.372 36.3643 28.7461 35.3605 28.3204C34.7346 28.0075 34.2966 28.2078 34.5782 28.6333C34.8848 29.0969 35.25 29.5141 35.6734 29.885C36.1428 30.5109 35.9863 30.8238 35.5169 30.5109C33.917 28.9603 32.1959 27.6043 30.3537 26.4429C30.0408 26.1299 29.2584 25.9735 29.5714 26.7558C30.415 27.6236 31.3015 28.4581 32.2312 29.2592C32.4465 29.5195 32.3943 29.7281 32.0748 29.885C30.6735 28.8491 29.3175 27.7539 28.0067 26.5993C26.4421 25.6606 26.4421 26.1299 26.755 26.7558C28.0157 28.0408 29.3196 29.2925 30.6666 30.5109C30.8752 30.7195 30.8752 30.9281 30.6666 31.1367C29.4671 30.1458 28.2675 29.1549 27.068 28.164C26.7713 28.0129 26.4584 27.9607 26.1292 28.0075C26.0824 28.3367 25.9727 28.3204 26.2857 28.9463C27.4696 29.8274 28.5648 30.8184 29.5714 31.9191C29.2584 32.1278 28.9455 32.1278 28.6326 31.9191C27.5374 30.8238 25.9727 30.198 26.4421 31.2932C28.3197 32.962 30.1972 34.6312 32.0748 36.3C29.4047 36.9669 26.6927 37.5404 23.9387 38.0211C23.7263 32.3149 23.5176 26.5778 23.3129 20.8102C24.136 20.2931 24.9705 19.7715 25.8163 19.2456C28.8755 18.0119 32.0047 17.1775 35.204 16.7422Z" fill="#7734E7"/>
    <path fill-rule="evenodd" clip-rule="evenodd" d="M13.2994 15.1797C15.8783 15.691 18.2773 16.6298 20.4966 17.996C20.9645 17.9694 21.2775 18.178 21.4354 18.6219C21.2226 19.0474 21.014 19.4646 20.8096 19.8736C17.0866 18.1925 13.2272 17.1494 9.23132 16.7443C9.93084 16.8365 10.5567 16.7322 11.1089 16.4314C14.1001 16.9189 17.0208 17.5969 19.8708 18.4654C17.3867 17.065 14.779 16.074 12.0476 15.4926C12.548 15.5764 12.9653 15.4721 13.2994 15.1797Z" fill="#E5F0F7"/>
    <path fill-rule="evenodd" clip-rule="evenodd" d="M21.1224 20.1875C21.7758 20.638 22.506 20.8466 23.3129 20.8134C23.5177 26.581 23.7263 32.318 23.9388 38.0242C23 38.4414 22.0612 38.4414 21.1224 38.0242C21.4354 38.0242 21.7483 38.0242 22.0612 38.0242C22.1133 32.3906 22.0612 26.758 21.9047 21.1263C21.4613 20.9454 21.2005 20.6325 21.1224 20.1875Z" fill="#AC73FF"/>
  </svg>
</svg>
